<svg width="299" height="378" viewBox="0 0 299 378" fill="none" xmlns="http://www.w3.org/2000/svg">
<path d="M149.336 377.243L0 291.138V148.782L149.336 62.6079L298.534 148.713V291.069L297.497 291.691L149.336 377.243ZM4.1463 288.72L149.336 372.475L294.387 288.72V151.131L149.336 67.3762L4.1463 151.131V288.72Z" fill="white"/>
<path d="M149.336 298.88L148.299 298.258L1.45117 213.674L3.52432 210.08L149.336 294.112L294.664 210.08L296.737 213.674L149.336 298.88Z" fill="white"/>
<path d="M149.336 237.376L148.299 236.754L1.45117 152.169L3.52432 148.576L149.336 232.607L294.664 148.576L296.737 152.169L149.336 237.376Z" fill="white"/>
<path d="M50.4463 107.805V138.487H71.8688V106.423L50.4463 107.805Z" fill="#E43326"/>
<path d="M61.1575 93.2242C53.9014 93.2242 48.373 89.8381 48.373 85.3462C48.373 80.8544 53.9014 77.4683 61.1575 77.4683C68.4135 77.4683 73.9419 80.8544 73.9419 85.3462C73.9419 89.8381 68.4135 93.2242 61.1575 93.2242ZM61.1575 81.6837C55.9055 81.6837 52.5193 83.895 52.5193 85.4153C52.5193 86.9357 55.9055 89.0779 61.1575 89.0779C66.4095 89.0779 69.7956 86.8665 69.7956 85.4153C69.7956 83.895 66.4095 81.6837 61.1575 81.6837Z" fill="white"/>
<path d="M61.1575 156.732C53.9014 156.732 48.373 153.415 48.373 148.992V85.1394H52.5193V148.992C52.5193 150.444 55.9055 152.586 61.1575 152.586C66.3404 152.586 69.7956 150.375 69.7956 148.854V85.2776H73.9419V148.854C73.9419 153.277 68.3444 156.732 61.1575 156.732Z" fill="white"/>
<path d="M52.5896 56.5993L59.0163 45.4734C59.9838 43.8149 62.3334 43.8149 63.3008 45.4734L69.7276 56.5993C73.5284 63.2334 68.7601 71.4569 61.1586 71.4569C53.557 71.4569 48.7888 63.2334 52.5896 56.5993Z" fill="#E43326"/>
<path d="M61.158 73.5292C56.8044 73.5292 52.9345 71.3178 50.7922 67.5171C48.65 63.7854 48.65 59.2936 50.7922 55.5619L57.219 44.436C58.0483 42.9848 59.4995 42.1555 61.158 42.1555C62.8165 42.1555 64.2677 42.9848 65.097 44.436L71.5237 55.5619C73.666 59.2936 73.666 63.7854 71.5237 67.5171C69.3815 71.3178 65.5116 73.5292 61.158 73.5292ZM54.3857 57.635C53.0036 60.0537 53.0036 63.0252 54.3857 65.4439C55.7678 67.8626 58.3247 69.3829 61.158 69.3829C63.9913 69.3829 66.5482 67.9317 67.9303 65.4439C69.3124 63.0252 69.3124 60.0537 67.9303 57.635L61.5035 46.5091C61.3653 46.2327 60.9507 46.2327 60.8125 46.5091L54.3857 57.635Z" fill="white"/>
<path d="M225.972 107.805V138.487H247.395V106.423L225.972 107.805Z" fill="#E43326"/>
<path d="M236.683 93.2244C229.427 93.2244 223.899 89.8383 223.899 85.4156C223.899 80.9237 229.427 77.5376 236.683 77.5376C243.939 77.5376 249.468 80.9237 249.468 85.4156C249.468 89.8383 243.939 93.2244 236.683 93.2244ZM236.683 81.6839C231.431 81.6839 228.045 83.8953 228.045 85.4156C228.045 86.9359 231.431 89.0781 236.683 89.0781C241.935 89.0781 245.321 86.8668 245.321 85.4156C245.321 83.8953 241.935 81.6839 236.683 81.6839Z" fill="white"/>
<path d="M236.683 156.732C229.427 156.732 223.899 153.415 223.899 148.992V85.1394H228.045V148.992C228.045 150.444 231.431 152.586 236.683 152.586C241.866 152.586 245.321 150.375 245.321 148.854V85.2776H249.468V148.854C249.468 153.277 243.87 156.732 236.683 156.732Z" fill="white"/>
<path d="M228.113 56.5993L234.54 45.4734C235.508 43.8149 237.857 43.8149 238.825 45.4734L245.252 56.5993C249.052 63.2334 244.284 71.4569 236.682 71.4569C229.081 71.4569 224.313 63.2334 228.113 56.5993Z" fill="#E43326"/>
<path d="M236.684 73.5292C232.33 73.5292 228.46 71.3178 226.318 67.5171C224.176 63.7854 224.176 59.2936 226.318 55.5619L232.745 44.436C233.574 42.9848 235.025 42.1555 236.684 42.1555C238.342 42.1555 239.794 42.9848 240.623 44.436L247.05 55.5619C249.192 59.2936 249.192 63.7854 247.05 67.5171C244.907 71.3178 241.037 73.5292 236.684 73.5292ZM229.912 57.635C228.529 60.0537 228.529 63.0252 229.912 65.4439C231.294 67.8626 233.851 69.3829 236.684 69.3829C239.517 69.3829 242.074 67.9317 243.456 65.4439C244.838 63.0252 244.838 60.0537 243.456 57.635L237.029 46.5091C236.891 46.2327 236.477 46.2327 236.338 46.5091L229.912 57.635Z" fill="white"/>
<path d="M104.349 145.121V175.804H125.771V143.739L104.349 145.121Z" fill="#E43326"/>
<path d="M115.06 130.541C107.804 130.541 102.275 127.155 102.275 122.732C102.275 118.24 107.804 114.854 115.06 114.854C122.316 114.854 127.844 118.24 127.844 122.732C127.844 127.155 122.316 130.541 115.06 130.541ZM115.06 119C109.808 119 106.422 121.212 106.422 122.732C106.422 124.252 109.808 126.395 115.06 126.395C120.312 126.395 123.698 124.183 123.698 122.732C123.698 121.212 120.312 119 115.06 119Z" fill="white"/>
<path d="M115.06 194.049C107.804 194.049 102.275 190.732 102.275 186.309V122.456H106.422V186.309C106.422 187.76 109.808 189.902 115.06 189.902C120.243 189.902 123.698 187.691 123.698 186.171V122.594H127.844V186.171C127.844 190.593 122.247 194.049 115.06 194.049Z" fill="white"/>
<path d="M106.49 93.9147L112.917 82.7888C113.885 81.1303 116.234 81.1303 117.202 82.7888L123.628 93.9147C127.429 100.549 122.661 108.772 115.059 108.772C107.458 108.772 102.69 100.549 106.49 93.9147Z" fill="#E43326"/>
<path d="M115.059 110.846C110.706 110.846 106.836 108.634 104.694 104.833C102.551 101.102 102.551 96.61 104.694 92.8783L111.12 81.7524C111.95 80.3012 113.401 79.4719 115.059 79.4719C116.718 79.4719 118.169 80.3012 118.998 81.7524L125.425 92.8783C127.567 96.61 127.567 101.102 125.425 104.833C123.283 108.634 119.413 110.846 115.059 110.846ZM108.287 94.9514C106.905 97.3701 106.905 100.342 108.287 102.76C109.669 105.179 112.226 106.699 115.059 106.699C117.893 106.699 120.45 105.248 121.832 102.76C123.214 100.342 123.214 97.3701 121.832 94.9514L115.405 83.8255C115.267 83.5491 114.852 83.5491 114.714 83.8255L108.287 94.9514Z" fill="white"/>
<path d="M173.453 145.121V175.804H194.875V143.739L173.453 145.121Z" fill="#E43326"/>
<path d="M184.164 130.541C176.908 130.541 171.379 127.155 171.379 122.732C171.379 118.24 176.908 114.854 184.164 114.854C191.42 114.854 196.948 118.24 196.948 122.732C196.948 127.155 191.42 130.541 184.164 130.541ZM184.164 119C178.912 119 175.526 121.212 175.526 122.732C175.526 124.252 178.912 126.395 184.164 126.395C189.416 126.395 192.802 124.183 192.802 122.732C192.802 121.212 189.416 119 184.164 119Z" fill="white"/>
<path d="M184.164 194.049C176.908 194.049 171.379 190.732 171.379 186.309V122.456H175.526V186.309C175.526 187.76 178.912 189.902 184.164 189.902C189.347 189.902 192.802 187.691 192.802 186.171V122.594H196.948V186.171C196.948 190.593 191.351 194.049 184.164 194.049Z" fill="white"/>
<path d="M175.596 93.9147L182.023 82.7888C182.99 81.1303 185.34 81.1303 186.307 82.7888L192.734 93.9147C196.535 100.549 191.766 108.772 184.165 108.772C176.563 108.772 171.795 100.549 175.596 93.9147Z" fill="#E43326"/>
<path d="M184.164 110.846C179.811 110.846 175.941 108.634 173.799 104.833C171.656 101.102 171.656 96.61 173.799 92.8783L180.225 81.7524C181.055 80.3012 182.506 79.4719 184.164 79.4719C185.823 79.4719 187.274 80.3012 188.103 81.7524L194.53 92.8783C196.672 96.61 196.672 101.102 194.53 104.833C192.388 108.634 188.518 110.846 184.164 110.846ZM177.392 94.9514C176.01 97.3701 176.01 100.342 177.392 102.76C178.774 105.179 181.331 106.699 184.164 106.699C186.998 106.699 189.555 105.248 190.937 102.76C192.319 100.342 192.319 97.3701 190.937 94.9514L184.51 83.8255C184.372 83.5491 183.957 83.5491 183.819 83.8255L177.392 94.9514Z" fill="white"/>
<path d="M138.211 57.1497V96.3322H159.633V55.7676L138.211 57.1497Z" fill="#E43326"/>
<path d="M148.922 51.0687C141.666 51.0687 136.137 47.6825 136.137 43.1907C136.137 38.6989 141.666 35.3127 148.922 35.3127C156.178 35.3127 161.706 38.768 161.706 43.1907C161.706 47.6825 156.178 51.0687 148.922 51.0687ZM148.922 39.5282C143.67 39.5282 140.284 41.7395 140.284 43.2598C140.284 44.7801 143.67 46.9224 148.922 46.9224C154.174 46.9224 157.56 44.711 157.56 43.2598C157.56 41.7395 154.174 39.5282 148.922 39.5282Z" fill="white"/>
<path d="M148.922 114.575C141.666 114.575 136.137 111.258 136.137 106.835V42.9133H140.284V106.766C140.284 108.218 143.67 110.36 148.922 110.36C154.105 110.36 157.56 108.148 157.56 106.628V43.0515H161.706V106.628C161.706 111.12 156.109 114.575 148.922 114.575Z" fill="white"/>
<path d="M140.353 14.4438L146.779 3.31787C147.747 1.65934 150.097 1.65934 151.064 3.31787L157.491 14.4438C161.292 21.0779 156.523 29.3014 148.922 29.3014C141.32 29.3014 136.552 21.0779 140.353 14.4438Z" fill="#E43326"/>
<path d="M148.922 31.3737C144.569 31.3737 140.699 29.1623 138.556 25.3615C136.414 21.6299 136.414 17.138 138.556 13.4064L144.983 2.28047C145.812 0.82926 147.264 0 148.922 0C150.581 0 152.032 0.82926 152.861 2.28047L159.288 13.4064C161.43 17.138 161.43 21.6299 159.288 25.3615C157.146 29.1623 153.276 31.3737 148.922 31.3737ZM142.15 15.4795C140.768 17.8982 140.768 20.8697 142.15 23.2884C143.532 25.7071 146.089 27.2274 148.922 27.2274C151.755 27.2274 154.312 25.7762 155.694 23.2884C157.077 20.8697 157.077 17.8982 155.694 15.4795L149.268 4.35362C149.129 4.0772 148.715 4.0772 148.577 4.35362L142.15 15.4795Z" fill="white"/>
<path d="M16.9301 276.007C16.5846 276.007 16.239 275.869 16.0317 275.523L9.81227 265.849C9.53585 265.365 9.67406 264.743 10.1578 264.397C10.6415 264.052 11.2635 264.259 11.609 264.743L17.8285 274.418C18.1049 274.901 17.9667 275.523 17.4829 275.869C17.3447 275.938 17.1374 276.007 16.9301 276.007Z" fill="white"/>
<path d="M29.715 265.988C29.3695 265.988 29.024 265.849 28.8167 265.504C28.5402 265.02 28.6785 264.398 29.1622 264.053L38.8369 257.833C39.3206 257.557 39.9426 257.695 40.2881 258.179C40.5645 258.663 40.4263 259.284 39.9426 259.63L30.2679 265.849C30.1297 265.919 29.9223 265.988 29.715 265.988Z" fill="white"/>
<path d="M52.1737 284.3C51.8282 284.3 51.4827 284.162 51.2754 283.816L45.0559 274.141C44.7795 273.658 44.9177 273.036 45.4014 272.69C45.8852 272.414 46.5071 272.552 46.8527 273.036L53.0721 282.71C53.3485 283.194 53.2103 283.816 52.7266 284.162C52.5884 284.231 52.3811 284.3 52.1737 284.3Z" fill="white"/>
<path d="M49.4096 307.105C49.0641 307.105 48.7185 306.967 48.5112 306.621L42.2918 296.946C42.0153 296.463 42.1536 295.841 42.6373 295.495C43.121 295.219 43.743 295.357 44.0885 295.841L50.3079 305.515C50.5844 305.999 50.4462 306.621 49.9624 306.967C49.8242 307.036 49.6169 307.105 49.4096 307.105Z" fill="white"/>
<path d="M23.1493 251.129C22.8038 251.129 22.4583 250.991 22.251 250.645L16.0315 240.971C15.7551 240.487 15.8933 239.865 16.377 239.52C16.8608 239.243 17.4827 239.381 17.8282 239.865L24.0477 249.54C24.3241 250.024 24.1859 250.645 23.7022 250.991C23.564 251.06 23.3566 251.129 23.1493 251.129Z" fill="white"/>
<path d="M64.9577 274.279C64.6122 274.279 64.2667 274.141 64.0593 273.795C63.7829 273.312 63.9211 272.69 64.4049 272.344L74.0796 266.125C74.5633 265.848 75.1853 265.987 75.5308 266.47C75.8072 266.954 75.669 267.576 75.1853 267.922L65.5105 274.141C65.3723 274.21 65.165 274.279 64.9577 274.279Z" fill="white"/>
<path d="M77.7431 318.852C77.3976 318.852 77.052 318.714 76.8447 318.369L70.6253 308.694C70.3488 308.21 70.487 307.588 70.9708 307.243C71.4545 306.966 72.0765 307.104 72.422 307.588L78.6414 317.263C78.9179 317.747 78.7797 318.369 78.2959 318.714C78.1577 318.783 77.9504 318.852 77.7431 318.852Z" fill="white"/>
<path d="M90.5275 308.833C90.182 308.833 89.8365 308.695 89.6292 308.349C89.3527 307.865 89.491 307.243 89.9747 306.898L99.6494 300.678C100.133 300.402 100.755 300.54 101.101 301.024C101.377 301.508 101.239 302.13 100.755 302.475L91.0804 308.695C90.9422 308.764 90.7348 308.833 90.5275 308.833Z" fill="white"/>
<path d="M120.243 343.384C119.897 343.384 119.552 343.246 119.344 342.901C119.068 342.417 119.206 341.795 119.69 341.449L129.365 335.23C129.848 334.954 130.47 335.092 130.816 335.576C131.092 336.059 130.954 336.681 130.47 337.027L120.796 343.246C120.657 343.315 120.45 343.384 120.243 343.384Z" fill="white"/>
<path d="M87.4169 291.902C87.0714 291.902 86.7259 291.763 86.5185 291.418L80.2991 281.743C80.0227 281.259 80.1609 280.637 80.6446 280.292C81.1283 279.946 81.7503 280.154 82.0958 280.637L88.3153 290.312C88.5917 290.796 88.4535 291.418 87.9697 291.763C87.8315 291.832 87.6242 291.902 87.4169 291.902Z" fill="white"/>
<path d="M117.823 303.649C117.478 303.649 117.132 303.511 116.925 303.165L110.705 293.491C110.429 293.007 110.567 292.385 111.051 292.039C111.535 291.763 112.157 291.901 112.502 292.385L118.722 302.06C118.998 302.543 118.86 303.165 118.376 303.511C118.238 303.58 118.03 303.649 117.823 303.649Z" fill="white"/>
<path d="M114.369 325.762C114.023 325.762 113.678 325.624 113.47 325.278L107.251 315.604C106.974 315.12 107.113 314.498 107.596 314.152C108.08 313.807 108.702 314.014 109.047 314.498L115.267 324.173C115.543 324.656 115.405 325.278 114.921 325.624C114.783 325.693 114.576 325.762 114.369 325.762Z" fill="white"/>
<path d="M125.771 317.124C125.425 317.124 125.08 316.986 124.872 316.641C124.596 316.157 124.734 315.535 125.218 315.189L134.893 308.97C135.376 308.694 135.998 308.832 136.344 309.316C136.62 309.799 136.482 310.421 135.998 310.767L126.324 316.986C126.185 317.055 125.978 317.124 125.771 317.124Z" fill="white"/>
<path d="M90.5275 332.328C90.182 332.328 89.8365 332.19 89.6292 331.844C89.3527 331.36 89.491 330.738 89.9747 330.393L99.6494 324.173C100.133 323.897 100.755 324.035 101.101 324.519C101.377 325.003 101.239 325.625 100.755 325.97L91.0804 332.19C90.9422 332.259 90.7348 332.328 90.5275 332.328Z" fill="white"/>
<path d="M24.8776 293.629C24.5321 293.629 24.1866 293.491 23.9793 293.146C23.7028 292.662 23.8411 292.04 24.3248 291.695L33.9995 285.475C34.4832 285.199 35.1052 285.337 35.4507 285.821C35.7271 286.304 35.5889 286.926 35.1052 287.272L25.4305 293.491C25.2923 293.56 25.0849 293.629 24.8776 293.629Z" fill="white"/>
<path d="M60.1218 297.084C59.7762 297.084 59.4307 296.946 59.2234 296.601C58.947 296.117 59.0852 295.495 59.5689 295.149L69.2436 288.93C69.7274 288.654 70.3493 288.792 70.6948 289.275C70.9713 289.759 70.833 290.381 70.3493 290.727L60.6746 296.946C60.5364 297.015 60.3291 297.084 60.1218 297.084Z" fill="white"/>
<path d="M280.567 271.168C280.359 271.168 280.152 271.099 280.014 271.03C279.53 270.754 279.392 270.063 279.668 269.579L285.888 259.904C286.164 259.421 286.855 259.282 287.339 259.559C287.823 259.835 287.961 260.526 287.684 261.01L281.465 270.685C281.258 271.03 280.912 271.168 280.567 271.168Z" fill="white"/>
<path d="M267.782 261.15C267.575 261.15 267.368 261.081 267.229 261.012L257.555 254.793C257.071 254.516 256.933 253.825 257.209 253.341C257.486 252.858 258.177 252.719 258.66 252.996L268.335 259.215C268.819 259.492 268.957 260.183 268.681 260.667C268.473 261.012 268.128 261.15 267.782 261.15Z" fill="white"/>
<path d="M245.322 279.462C245.115 279.462 244.907 279.393 244.769 279.324C244.285 279.048 244.147 278.357 244.424 277.873L250.643 268.198C250.919 267.714 251.611 267.576 252.094 267.853C252.578 268.129 252.716 268.82 252.44 269.304L246.22 278.978C246.013 279.324 245.667 279.462 245.322 279.462Z" fill="white"/>
<path d="M248.087 302.267C247.88 302.267 247.672 302.198 247.534 302.129C247.051 301.853 246.912 301.161 247.189 300.678L253.408 291.003C253.685 290.519 254.376 290.381 254.859 290.657C255.343 290.934 255.481 291.625 255.205 292.109L248.985 301.783C248.778 302.129 248.433 302.267 248.087 302.267Z" fill="white"/>
<path d="M274.346 246.292C274.139 246.292 273.931 246.222 273.793 246.153C273.309 245.877 273.171 245.186 273.448 244.702L279.667 235.027C279.943 234.544 280.634 234.405 281.118 234.682C281.602 234.958 281.74 235.649 281.464 236.133L275.244 245.808C275.037 246.153 274.691 246.292 274.346 246.292Z" fill="white"/>
<path d="M232.539 269.442C232.331 269.442 232.124 269.373 231.986 269.304L222.311 263.084C221.827 262.808 221.689 262.117 221.966 261.633C222.242 261.149 222.933 261.011 223.417 261.287L233.091 267.507C233.575 267.783 233.713 268.474 233.437 268.958C233.23 269.304 232.884 269.442 232.539 269.442Z" fill="white"/>
<path d="M219.754 314.015C219.547 314.015 219.339 313.946 219.201 313.876C218.718 313.6 218.579 312.909 218.856 312.425L225.075 302.751C225.352 302.267 226.043 302.129 226.526 302.405C227.01 302.681 227.148 303.373 226.872 303.856L220.652 313.531C220.445 313.876 220.1 314.015 219.754 314.015Z" fill="white"/>
<path d="M206.969 303.995C206.762 303.995 206.555 303.926 206.416 303.857L196.742 297.638C196.258 297.361 196.12 296.67 196.396 296.186C196.673 295.703 197.364 295.564 197.847 295.841L207.522 302.06C208.006 302.337 208.144 303.028 207.868 303.511C207.66 303.857 207.315 303.995 206.969 303.995Z" fill="white"/>
<path d="M177.254 338.547C177.047 338.547 176.84 338.478 176.702 338.409L167.027 332.189C166.543 331.913 166.405 331.222 166.681 330.738C166.958 330.254 167.649 330.116 168.133 330.392L177.807 336.612C178.291 336.888 178.429 337.579 178.153 338.063C177.946 338.409 177.6 338.547 177.254 338.547Z" fill="white"/>
<path d="M210.078 287.064C209.871 287.064 209.664 286.995 209.525 286.926C209.042 286.649 208.904 285.958 209.18 285.474L215.399 275.8C215.676 275.316 216.367 275.178 216.851 275.454C217.334 275.731 217.473 276.422 217.196 276.905L210.977 286.58C210.769 286.926 210.424 287.064 210.078 287.064Z" fill="white"/>
<path d="M179.673 298.81C179.466 298.81 179.258 298.741 179.12 298.672C178.636 298.395 178.498 297.704 178.775 297.221L184.994 287.546C185.271 287.062 185.962 286.924 186.445 287.2C186.929 287.477 187.067 288.168 186.791 288.652L180.571 298.326C180.364 298.672 180.019 298.81 179.673 298.81Z" fill="white"/>
<path d="M183.128 320.925C182.921 320.925 182.713 320.856 182.575 320.787C182.092 320.511 181.953 319.82 182.23 319.336L188.449 309.661C188.726 309.177 189.417 309.039 189.9 309.316C190.384 309.592 190.522 310.283 190.246 310.767L184.026 320.442C183.819 320.787 183.474 320.925 183.128 320.925Z" fill="white"/>
<path d="M171.726 312.287C171.518 312.287 171.311 312.218 171.173 312.149L161.498 305.929C161.014 305.653 160.876 304.962 161.153 304.478C161.429 303.994 162.12 303.856 162.604 304.132L172.279 310.352C172.762 310.628 172.9 311.319 172.624 311.803C172.417 312.149 172.071 312.287 171.726 312.287Z" fill="white"/>
<path d="M206.969 327.491C206.762 327.491 206.555 327.422 206.416 327.353L196.742 321.134C196.258 320.857 196.12 320.166 196.396 319.682C196.673 319.199 197.364 319.061 197.847 319.337L207.522 325.556C208.006 325.833 208.144 326.524 207.868 327.008C207.66 327.353 207.315 327.491 206.969 327.491Z" fill="white"/>
<path d="M272.619 288.792C272.411 288.792 272.204 288.723 272.066 288.654L262.391 282.434C261.907 282.158 261.769 281.467 262.046 280.983C262.322 280.499 263.013 280.361 263.497 280.637L273.172 286.857C273.655 287.133 273.794 287.824 273.517 288.308C273.31 288.654 272.964 288.792 272.619 288.792Z" fill="white"/>
<path d="M237.375 292.247C237.168 292.247 236.96 292.178 236.822 292.108L227.148 285.889C226.664 285.613 226.526 284.922 226.802 284.438C227.078 283.954 227.769 283.816 228.253 284.092L237.928 290.312C238.412 290.588 238.55 291.279 238.273 291.763C238.066 292.108 237.721 292.247 237.375 292.247Z" fill="white"/>
<path d="M151.34 234.542H147.193V374.134H151.34V234.542Z" fill="white"/>
</svg>
